<svg xmlns="http://www.w3.org/2000/svg" enable-background="new 0 0 24 24" viewBox="0 0 24 24"><polygon points="6.363 2.978 6.366 2.974 6.375 2.962 6.363 2.978"/><polygon points="10.549 15.738 10.538 15.734 10.537 15.734"/><path fill="#37609B" d="M10.187,0L8.142,2.04l3.782,3.769L3.75,13.962L13.815,24l2.043-2.04l-3.781-3.771l8.173-8.151L10.187,0L10.187,0z M9.524,15.542l-1.226-1.26l-0.002-0.013l6.081-6.063l1.226,1.223L9.524,15.542L9.524,15.542z"/><polygon fill="#DEDEDE" points="14.376 8.206 8.296 14.269 8.298 14.282 8.898 14.899 14.984 8.812 14.376 8.206"/><polygon fill="#DEDEDE" points="6.363 2.978 6.366 2.974 6.375 2.962 6.363 2.978"/><polygon points="6.375 2.962 6.366 2.974 6.363 2.978 6.375 2.962"/><polygon fill="#305487" points="10.187 0 8.142 2.04 11.924 5.809 3.75 13.962 6.796 17 8.898 14.899 8.298 14.282 8.296 14.269 14.376 8.206 14.984 8.812 17 6.796 10.187 0"/></svg>